<?xml version="1.0" encoding="utf-8"?>
<!-- Generator: Adobe Illustrator 24.0.1, SVG Export Plug-In . SVG Version: 6.00 Build 0)  -->
<svg version="1.1" id="Layer_1" xmlns="http://www.w3.org/2000/svg" xmlns:xlink="http://www.w3.org/1999/xlink" x="0px" y="0px"
	 viewBox="0 0 16 16" style="enable-background:new 0 0 16 16;" xml:space="preserve">
<style type="text/css">
	.st0{fill:#FFFFFF;}
</style>
<path class="st0" d="M9.6,0.1c-5.7-1-10.5,3.8-9.5,9.5c0.6,3.1,3.1,5.7,6.3,6.3c5.6,1.1,10.5-3.8,9.4-9.4C15.3,3.3,12.7,0.7,9.6,0.1
	z M4,4h8c0.1,0,0.3,0,0.4,0.1L8,9.2L3.6,4.1C3.7,4,3.9,4,4,4z M3,11V5l0,0l2.9,3.4l-2.7,2.7C3.1,11,3.1,11,3,11z M12,12H4
	c0-0.1,0-0.1-0.1-0.2l2.7-2.7L8,10.8l1.4-1.6l2.8,2.8C12.2,12,12.1,12,12,12L12,12z M13,11c-0.1,0-0.1,0-0.2,0.1l-2.7-2.7L13,5l0,0
	V11z"/>
</svg>
